<svg width="156" height="73" viewBox="0 0 156 73" fill="none" xmlns="http://www.w3.org/2000/svg">
<path d="M3.75144 62.3472C3.28852 62.3472 2.85566 62.3051 2.45286 62.221C2.05608 62.1428 1.72242 62.0376 1.45188 61.9053C1.18134 61.7731 0.958901 61.6468 0.784556 61.5266C0.616222 61.4063 0.474942 61.2861 0.360715 61.1659L0.586162 58.9745C0.832651 59.3052 1.16331 59.5938 1.57813 59.8402C1.99295 60.0807 2.44084 60.201 2.92179 60.201C3.40275 60.201 3.74843 60.1499 3.95885 60.0477C4.17528 59.9454 4.28349 59.7591 4.28349 59.4885C4.28349 59.2 4.16025 58.9535 3.91376 58.7491C3.67328 58.5447 3.25546 58.2982 2.66028 58.0096C2.44385 57.9014 2.26048 57.8052 2.11018 57.721C1.95989 57.6309 1.75849 57.4866 1.50599 57.2882C1.2595 57.0838 1.0581 56.8734 0.901788 56.6569C0.745478 56.4345 0.607204 56.1519 0.486966 55.8092C0.366727 55.4606 0.306608 55.0878 0.306608 54.691C0.306608 52.5448 1.51801 51.4716 3.94081 51.4716C4.32558 51.4716 4.68629 51.5137 5.02296 51.5979C5.36564 51.6761 5.63317 51.7632 5.82555 51.8594C6.01793 51.9556 6.19228 52.0698 6.34859 52.2021C6.51091 52.3283 6.61311 52.4185 6.6552 52.4726C6.69728 52.5207 6.72734 52.5598 6.74538 52.5899L6.29448 54.3303C6.06002 54.0538 5.76543 53.8494 5.41073 53.7171C5.06204 53.5788 4.72838 53.5097 4.40974 53.5097C3.64022 53.5097 3.25546 53.7502 3.25546 54.2311C3.25546 54.3574 3.2795 54.4716 3.3276 54.5738C3.37569 54.676 3.45385 54.7692 3.56206 54.8534C3.67028 54.9375 3.76947 55.0097 3.85965 55.0698C3.95584 55.1299 4.0851 55.205 4.24742 55.2952C4.41576 55.3794 4.54201 55.4485 4.62617 55.5026C5.50391 55.8754 6.14719 56.3173 6.556 56.8283C6.97082 57.3393 7.17823 57.9615 7.17823 58.695C7.17823 59.8853 6.88365 60.7931 6.29448 61.4184C5.71133 62.0376 4.86364 62.3472 3.75144 62.3472ZM12.1287 61.3552L12.0385 61.4544C11.9784 61.5266 11.8852 61.6108 11.759 61.7069C11.6387 61.8031 11.4974 61.8993 11.3351 61.9955C11.1788 62.0917 10.9864 62.1729 10.758 62.239C10.5295 62.3111 10.2951 62.3472 10.0546 62.3472C8.43137 62.3472 7.61976 61.5446 7.61976 59.9394C7.61976 59.6268 7.67687 59.3413 7.7911 59.0827C7.90532 58.8182 8.05262 58.5958 8.23297 58.4154C8.41333 58.2351 8.62976 58.0757 8.88226 57.9375C9.13476 57.7932 9.38726 57.682 9.63976 57.6038C9.89828 57.5196 10.1688 57.4505 10.4514 57.3964C10.7339 57.3423 10.9864 57.3062 11.2089 57.2882C11.4313 57.2701 11.6447 57.2611 11.8491 57.2611V57.0988C11.8491 56.7321 11.7499 56.4736 11.5516 56.3233C11.3592 56.173 11.0466 56.0978 10.6137 56.0978C10.241 56.0978 9.85319 56.1429 9.45039 56.2331C9.04759 56.3173 8.73196 56.4195 8.50351 56.5397L7.92637 55.3133C8.33518 55.0487 8.86723 54.8173 9.52253 54.6189C10.1778 54.4145 10.8452 54.3123 11.5245 54.3123C12.1257 54.3123 12.6217 54.3724 13.0125 54.4926C13.4032 54.6069 13.7189 54.8053 13.9593 55.0878C14.2058 55.3644 14.3802 55.7191 14.4824 56.1519C14.5846 56.5788 14.6357 57.1229 14.6357 57.7842V61.4544L14.8882 62.1578H12.4173L12.1287 61.3552ZM11.4163 60.7601C11.4944 60.7601 11.5666 60.745 11.6327 60.715C11.7049 60.6789 11.759 60.6458 11.795 60.6158C11.8311 60.5797 11.8491 60.5617 11.8491 60.5617V58.3974C11.4824 58.3974 11.1908 58.4996 10.9744 58.704C10.758 58.9024 10.6498 59.212 10.6498 59.6328C10.6498 60.3843 10.9053 60.7601 11.4163 60.7601ZM18.9272 62.1578H15.9964V56.0798H15.1216V54.8804L16.0325 54.4926V53.7081C16.0325 53.1009 16.1166 52.5748 16.285 52.13C16.4533 51.6851 16.6878 51.3394 16.9884 51.0929C17.295 50.8464 17.6316 50.6691 17.9984 50.5608C18.3711 50.4466 18.7859 50.3895 19.2428 50.3895C19.6516 50.3895 20.0364 50.4436 20.3971 50.5518C20.7578 50.66 20.9833 50.7592 21.0735 50.8494L20.7308 52.2201C20.4422 52.0758 20.1446 52.0037 19.838 52.0037C19.7598 52.0037 19.6877 52.0097 19.6216 52.0217C19.1587 52.0939 18.9272 52.4877 18.9272 53.2031V54.4926H20.0905V56.0798H18.9272V62.1578ZM24.9106 57.4956C24.9106 56.7321 24.8715 56.191 24.7933 55.8724C24.7152 55.5537 24.5709 55.3944 24.3605 55.3944C24.1801 55.3944 24.0328 55.4275 23.9186 55.4936C23.8044 55.5537 23.7202 55.6529 23.6661 55.7912C23.612 55.9235 23.5759 56.0617 23.5579 56.206C23.5459 56.3443 23.5398 56.5217 23.5398 56.7381V57.4956H24.9106ZM24.1891 62.3472C23.5158 62.3472 22.9296 62.245 22.4306 62.0406C21.9377 61.8362 21.5469 61.5506 21.2583 61.1839C20.9758 60.8172 20.7683 60.4054 20.6361 59.9485C20.5038 59.4855 20.4377 58.9715 20.4377 58.4064C20.4377 57.0597 20.7804 56.0407 21.4657 55.3493C22.1511 54.658 23.11 54.3123 24.3424 54.3123C25.5268 54.3123 26.3745 54.5918 26.8855 55.1509C27.3965 55.704 27.652 56.5968 27.652 57.8293V58.8302H23.5308V59.0016C23.5308 59.3563 23.5669 59.6479 23.639 59.8763C23.7172 60.1048 23.8284 60.2731 23.9727 60.3813C24.117 60.4895 24.2643 60.5617 24.4146 60.5977C24.5649 60.6338 24.7482 60.6519 24.9647 60.6519C25.1751 60.6519 25.4005 60.6248 25.641 60.5707C25.8875 60.5166 26.134 60.4324 26.3805 60.3182C26.633 60.204 26.8434 60.0687 27.0117 59.9124L27.5438 60.8232C27.3213 61.1839 26.9937 61.4875 26.5608 61.734C26.134 61.9745 25.7222 62.1368 25.3254 62.221C24.9286 62.3051 24.5498 62.3472 24.1891 62.3472ZM30.7391 62.3472C29.9275 62.3472 29.3593 62.1037 29.0347 61.6168C28.7161 61.1298 28.5567 60.3062 28.5567 59.1459V56.0798H27.9345V54.8263L28.9986 54.4926L29.9184 52.3915H31.5056V54.4926H32.9845V56.0798H31.4785V59.4344C31.4785 59.9154 31.5477 60.234 31.6859 60.3903C31.8242 60.5466 32.0376 60.6248 32.3262 60.6248C32.4525 60.6248 32.5667 60.6098 32.6689 60.5797C32.7711 60.5496 32.8553 60.5076 32.9214 60.4535V61.6799C32.8312 61.7701 32.714 61.8602 32.5697 61.9504C32.4254 62.0346 32.1849 62.1218 31.8483 62.2119C31.5176 62.3021 31.1479 62.3472 30.7391 62.3472ZM37.478 65.26C36.8588 65.26 36.2757 65.1698 35.7286 64.9895C35.1815 64.8091 34.7817 64.5656 34.5292 64.259L34.9981 63.2851C35.3468 63.4835 35.8999 63.5827 36.6574 63.5827C36.8979 63.5827 37.1053 63.5556 37.2796 63.5015C37.454 63.4474 37.6103 63.3512 37.7486 63.2129C37.8868 63.0807 37.9921 62.8913 38.0642 62.6448C38.1363 62.3983 38.1754 62.0947 38.1814 61.734V60.9585L38.0913 61.1027C38.0311 61.1989 37.9379 61.3162 37.8117 61.4544C37.6915 61.5867 37.5532 61.722 37.3969 61.8602C37.2406 61.9925 37.0482 62.1067 36.8197 62.2029C36.5973 62.2991 36.3688 62.3472 36.1344 62.3472C35.2386 62.3472 34.6073 62.0977 34.2406 61.5987C33.8739 61.0937 33.6905 60.246 33.6905 59.0557V55.8543L33.3659 55.5297V54.4926H36.6484V59.6238C36.6484 59.9004 36.6905 60.1048 36.7746 60.237C36.8648 60.3633 37.0422 60.4264 37.3067 60.4264C37.3849 60.4264 37.463 60.4144 37.5412 60.3903C37.6193 60.3603 37.6945 60.3212 37.7666 60.2731C37.8448 60.225 37.9259 60.1649 38.0101 60.0927V55.8543L37.5141 55.5297V54.4926H40.9499V61.1027C40.9499 62.4314 40.6674 63.4564 40.1022 64.1778C39.5371 64.8993 38.6624 65.26 37.478 65.26ZM44.9242 62.1578H42.0565V52.4366L41.6146 51.5889H44.9332L46.5925 55.0157L48.1797 58.4335L47.7378 54.4205V51.5889H50.6145V62.1578H47.864L45.7178 57.9826L44.3921 55.3674L44.9242 58.8302V62.1578ZM55.98 57.4956C55.98 56.7321 55.9409 56.191 55.8627 55.8724C55.7846 55.5537 55.6403 55.3944 55.4299 55.3944C55.2495 55.3944 55.1022 55.4275 54.988 55.4936C54.8738 55.5537 54.7896 55.6529 54.7355 55.7912C54.6814 55.9235 54.6453 56.0617 54.6273 56.206C54.6153 56.3443 54.6093 56.5217 54.6093 56.7381V57.4956H55.98ZM55.2586 62.3472C54.5852 62.3472 53.9991 62.245 53.5001 62.0406C53.0071 61.8362 52.6163 61.5506 52.3277 61.1839C52.0452 60.8172 51.8378 60.4054 51.7055 59.9485C51.5732 59.4855 51.5071 58.9715 51.5071 58.4064C51.5071 57.0597 51.8498 56.0407 52.5352 55.3493C53.2205 54.658 54.1794 54.3123 55.4119 54.3123C56.5962 54.3123 57.4439 54.5918 57.9549 55.1509C58.4659 55.704 58.7214 56.5968 58.7214 57.8293V58.8302H54.6002V59.0016C54.6002 59.3563 54.6363 59.6479 54.7085 59.8763C54.7866 60.1048 54.8978 60.2731 55.0421 60.3813C55.1864 60.4895 55.3337 60.5617 55.484 60.5977C55.6343 60.6338 55.8177 60.6519 56.0341 60.6519C56.2445 60.6519 56.47 60.6248 56.7104 60.5707C56.9569 60.5166 57.2034 60.4324 57.4499 60.3182C57.7024 60.204 57.9128 60.0687 58.0811 59.9124L58.6132 60.8232C58.3908 61.1839 58.0631 61.4875 57.6303 61.734C57.2034 61.9745 56.7916 62.1368 56.3948 62.221C55.998 62.3051 55.6193 62.3472 55.2586 62.3472ZM61.8085 62.3472C60.9969 62.3472 60.4288 62.1037 60.1041 61.6168C59.7855 61.1298 59.6262 60.3062 59.6262 59.1459V56.0798H59.0039V54.8263L60.068 54.4926L60.9879 52.3915H62.575V54.4926H64.0539V56.0798H62.548V59.4344C62.548 59.9154 62.6171 60.234 62.7554 60.3903C62.8936 60.5466 63.1071 60.6248 63.3956 60.6248C63.5219 60.6248 63.6361 60.6098 63.7383 60.5797C63.8405 60.5496 63.9247 60.5076 63.9908 60.4535V61.6799C63.9006 61.7701 63.7834 61.8602 63.6391 61.9504C63.4948 62.0346 63.2544 62.1218 62.9177 62.2119C62.587 62.3021 62.2173 62.3472 61.8085 62.3472ZM70.0477 62.1578V53.9786H67.9376V51.5889H75.206V53.9786H73.0958V62.1578H70.0477ZM80.1539 57.4956C80.1539 56.7321 80.1148 56.191 80.0367 55.8724C79.9585 55.5537 79.8142 55.3944 79.6038 55.3944C79.4234 55.3944 79.2762 55.4275 79.1619 55.4936C79.0477 55.5537 78.9635 55.6529 78.9094 55.7912C78.8553 55.9235 78.8193 56.0617 78.8012 56.206C78.7892 56.3443 78.7832 56.5217 78.7832 56.7381V57.4956H80.1539ZM79.4325 62.3472C78.7591 62.3472 78.173 62.245 77.674 62.0406C77.181 61.8362 76.7902 61.5506 76.5017 61.1839C76.2191 60.8172 76.0117 60.4054 75.8794 59.9485C75.7472 59.4855 75.681 58.9715 75.681 58.4064C75.681 57.0597 76.0237 56.0407 76.7091 55.3493C77.3944 54.658 78.3533 54.3123 79.5858 54.3123C80.7701 54.3123 81.6178 54.5918 82.1288 55.1509C82.6398 55.704 82.8953 56.5968 82.8953 57.8293V58.8302H78.7742V59.0016C78.7742 59.3563 78.8102 59.6479 78.8824 59.8763C78.9605 60.1048 79.0718 60.2731 79.216 60.3813C79.3603 60.4895 79.5076 60.5617 79.6579 60.5977C79.8082 60.6338 79.9916 60.6519 80.208 60.6519C80.4184 60.6519 80.6439 60.6248 80.8843 60.5707C81.1308 60.5166 81.3773 60.4324 81.6238 60.3182C81.8763 60.204 82.0867 60.0687 82.2551 59.9124L82.7871 60.8232C82.5647 61.1839 82.237 61.4875 81.8042 61.734C81.3773 61.9745 80.9655 62.1368 80.5687 62.221C80.1719 62.3051 79.7932 62.3472 79.4325 62.3472ZM89.9052 61.4094L89.824 61.5085C89.7699 61.5687 89.6737 61.6468 89.5354 61.743C89.4032 61.8332 89.2409 61.9264 89.0485 62.0226C88.8621 62.1127 88.6096 62.1879 88.291 62.248C87.9784 62.3141 87.6417 62.3472 87.281 62.3472C86.0606 62.3472 85.1257 61.9895 84.4764 61.2741C83.8331 60.5587 83.5115 59.6118 83.5115 58.4335C83.5115 57.7962 83.6107 57.216 83.8091 56.693C84.0075 56.17 84.278 55.7371 84.6207 55.3944C84.9694 55.0457 85.3752 54.7782 85.8381 54.5918C86.307 54.3995 86.812 54.3033 87.3531 54.3033C88.3992 54.3033 89.2108 54.5528 89.7879 55.0517C89.9142 55.178 89.9773 55.2411 89.9773 55.2411L89.8421 57.3603L88.5615 57.3693L88.0475 55.9896C87.9994 55.9776 87.9333 55.9716 87.8491 55.9716C87.302 55.9716 86.9233 56.1609 86.7129 56.5397C86.5084 56.9124 86.4062 57.5617 86.4062 58.4876C86.4062 58.8904 86.4393 59.236 86.5054 59.5246C86.5716 59.8072 86.6467 60.0206 86.7309 60.1649C86.8151 60.3032 86.9263 60.4114 87.0645 60.4895C87.2088 60.5677 87.3261 60.6128 87.4162 60.6248C87.5064 60.6368 87.6176 60.6428 87.7499 60.6428C88.0505 60.6428 88.3571 60.6068 88.6697 60.5346C88.9884 60.4625 89.2499 60.3452 89.4543 60.1829L89.9052 61.4094ZM93.669 62.1578H90.7472V51.9586L90.2061 51.634V50.7953L93.1008 50.3444H93.687V55.6559L93.7952 55.5207C93.8673 55.4245 93.9726 55.3103 94.1108 55.178C94.2551 55.0457 94.4144 54.9165 94.5888 54.7902C94.7631 54.658 94.9705 54.5467 95.211 54.4566C95.4575 54.3604 95.698 54.3123 95.9324 54.3123C96.7561 54.3123 97.3362 54.5377 97.6729 54.9886C98.0156 55.4395 98.1869 56.194 98.1869 57.2521C98.1869 57.2882 98.1869 57.3423 98.1869 57.4144C98.1809 57.4866 98.1779 57.5437 98.1779 57.5858V62.1578H95.202V57.3243C95.22 56.7591 94.9796 56.4766 94.4806 56.4766C94.4325 56.4766 94.3844 56.4796 94.3363 56.4856C94.2942 56.4916 94.2491 56.5066 94.201 56.5307C94.1529 56.5547 94.1138 56.5728 94.0838 56.5848C94.0597 56.5968 94.0206 56.6209 93.9665 56.6569C93.9184 56.693 93.8854 56.717 93.8673 56.7291C93.8553 56.7411 93.8192 56.7712 93.7591 56.8193C93.705 56.8673 93.675 56.8944 93.669 56.9004V62.1578ZM102.214 62.1578H99.3012V56.3233L98.7602 55.9896V55.0247L100.699 54.4926H102.232V55.6559L102.34 55.5207C102.412 55.4245 102.518 55.3103 102.656 55.178C102.8 55.0457 102.96 54.9165 103.134 54.7902C103.308 54.658 103.516 54.5467 103.756 54.4566C104.003 54.3604 104.243 54.3123 104.478 54.3123C105.301 54.3123 105.881 54.5377 106.218 54.9886C106.561 55.4395 106.732 56.194 106.732 57.2521C106.732 57.2882 106.732 57.3423 106.732 57.4144C106.726 57.4866 106.723 57.5437 106.723 57.5858V62.1578H103.747V57.3243C103.765 56.7591 103.525 56.4766 103.026 56.4766C102.99 56.4766 102.953 56.4796 102.917 56.4856C102.887 56.4916 102.857 56.4976 102.827 56.5036C102.803 56.5096 102.773 56.5217 102.737 56.5397C102.707 56.5517 102.68 56.5637 102.656 56.5758C102.632 56.5818 102.605 56.5968 102.575 56.6209C102.545 56.6389 102.521 56.6539 102.503 56.6659C102.485 56.678 102.458 56.699 102.421 56.7291C102.391 56.7531 102.367 56.7712 102.349 56.7832C102.337 56.7952 102.313 56.8162 102.277 56.8463C102.247 56.8704 102.226 56.8884 102.214 56.9004V62.1578ZM111.486 61.2651C111.751 61.2651 111.952 61.1569 112.091 60.9404C112.235 60.718 112.307 60.4144 112.307 60.0296V57.18C112.307 56.0076 112.03 55.4215 111.477 55.4215C111.219 55.4215 111.017 55.5267 110.873 55.7371C110.729 55.9475 110.657 56.2451 110.657 56.6299V59.5607C110.657 60.6969 110.933 61.2651 111.486 61.2651ZM111.414 62.3472C110.038 62.3472 109.031 62.0346 108.393 61.4094C107.756 60.7841 107.437 59.7861 107.437 58.4154C107.437 57.0567 107.759 56.0347 108.402 55.3493C109.046 54.658 110.092 54.3123 111.54 54.3123C112.953 54.3123 113.972 54.6429 114.598 55.3042C115.229 55.9595 115.544 56.9545 115.544 58.2892C115.544 59.6719 115.211 60.6939 114.543 61.3552C113.882 62.0166 112.839 62.3472 111.414 62.3472ZM116.428 62.1578V51.9586L115.887 51.634V50.7953L118.781 50.3444H119.367V62.1578H116.428ZM124.194 61.2651C124.459 61.2651 124.66 61.1569 124.798 60.9404C124.943 60.718 125.015 60.4144 125.015 60.0296V57.18C125.015 56.0076 124.738 55.4215 124.185 55.4215C123.927 55.4215 123.725 55.5267 123.581 55.7371C123.437 55.9475 123.365 56.2451 123.365 56.6299V59.5607C123.365 60.6969 123.641 61.2651 124.194 61.2651ZM124.122 62.3472C122.745 62.3472 121.738 62.0346 121.101 61.4094C120.464 60.7841 120.145 59.7861 120.145 58.4154C120.145 57.0567 120.467 56.0347 121.11 55.3493C121.753 54.658 122.799 54.3123 124.248 54.3123C125.661 54.3123 126.68 54.6429 127.305 55.3042C127.937 55.9595 128.252 56.9545 128.252 58.2892C128.252 59.6719 127.919 60.6939 127.251 61.3552C126.59 62.0166 125.547 62.3472 124.122 62.3472ZM132.707 65.3411C132.238 65.3411 131.709 65.2329 131.119 65.0165C130.53 64.8061 130.148 64.6047 129.974 64.4123L130.542 63.1769C130.693 63.2911 130.936 63.3963 131.273 63.4925C131.609 63.5887 131.898 63.6368 132.138 63.6368C132.379 63.6368 132.586 63.6037 132.761 63.5376C132.941 63.4775 133.079 63.3993 133.175 63.3031C133.272 63.2129 133.35 63.0987 133.41 62.9604C133.47 62.8282 133.506 62.7079 133.518 62.5997C133.536 62.4915 133.548 62.3713 133.554 62.239V61.4725C133.043 62.0015 132.421 62.2661 131.687 62.2661C130.696 62.2661 129.968 61.9264 129.505 61.247C129.042 60.5677 128.811 59.6238 128.811 58.4154C128.811 57.8503 128.874 57.3303 129 56.8553C129.126 56.3744 129.31 55.9535 129.55 55.5928C129.797 55.2261 130.115 54.9405 130.506 54.7361C130.897 54.5257 131.339 54.4205 131.832 54.4205C132.577 54.4205 133.224 54.5858 133.771 54.9165L133.924 54.4926H135.304L136.999 54.5738V55.4215L136.458 55.8002V61.8242C136.458 64.1688 135.207 65.3411 132.707 65.3411ZM132.995 60.6248C133.175 60.6248 133.362 60.5737 133.554 60.4715V55.7191C133.41 55.689 133.278 55.674 133.157 55.674C132.358 55.68 131.955 56.2962 131.949 57.5226V58.9204C131.949 59.3052 132 59.6358 132.102 59.9124C132.283 60.3873 132.58 60.6248 132.995 60.6248ZM137.715 62.1578V56.3233L137.174 55.9896V55.0247L139.113 54.4926H140.619V62.1578H137.715ZM139.023 53.663L137.544 52.175V51.8594L139.023 50.3805H139.366L140.908 51.8594V52.175L139.366 53.663H139.023ZM145.912 57.4956C145.912 56.7321 145.873 56.191 145.795 55.8724C145.717 55.5537 145.573 55.3944 145.362 55.3944C145.182 55.3944 145.034 55.4275 144.92 55.4936C144.806 55.5537 144.722 55.6529 144.668 55.7912C144.614 55.9235 144.578 56.0617 144.56 56.206C144.548 56.3443 144.541 56.5217 144.541 56.7381V57.4956H145.912ZM145.191 62.3472C144.517 62.3472 143.931 62.245 143.432 62.0406C142.939 61.8362 142.549 61.5506 142.26 61.1839C141.977 60.8172 141.77 60.4054 141.638 59.9485C141.505 59.4855 141.439 58.9715 141.439 58.4064C141.439 57.0597 141.782 56.0407 142.467 55.3493C143.153 54.658 144.112 54.3123 145.344 54.3123C146.528 54.3123 147.376 54.5918 147.887 55.1509C148.398 55.704 148.654 56.5968 148.654 57.8293V58.8302H144.532V59.0016C144.532 59.3563 144.569 59.6479 144.641 59.8763C144.719 60.1048 144.83 60.2731 144.974 60.3813C145.119 60.4895 145.266 60.5617 145.416 60.5977C145.567 60.6338 145.75 60.6519 145.966 60.6519C146.177 60.6519 146.402 60.6248 146.643 60.5707C146.889 60.5166 147.136 60.4324 147.382 60.3182C147.635 60.204 147.845 60.0687 148.013 59.9124L148.545 60.8232C148.323 61.1839 147.995 61.4875 147.562 61.734C147.136 61.9745 146.724 62.1368 146.327 62.221C145.93 62.3051 145.551 62.3472 145.191 62.3472ZM152.002 62.3472C151.437 62.3472 150.866 62.254 150.289 62.0677C149.712 61.8753 149.342 61.6889 149.18 61.5085L149.414 60.0567C149.619 60.2551 149.958 60.4264 150.433 60.5707C150.914 60.715 151.404 60.7871 151.903 60.7871C152.264 60.7871 152.51 60.742 152.643 60.6519C152.781 60.5617 152.85 60.4354 152.85 60.2731C152.85 60.1168 152.73 59.9785 152.489 59.8583C152.249 59.732 151.858 59.5877 151.317 59.4254C149.916 59.0046 149.216 58.1329 149.216 56.8102C149.216 56.2692 149.372 55.8062 149.685 55.4215C149.997 55.0307 150.397 54.7481 150.884 54.5738C151.371 54.3995 151.915 54.3123 152.516 54.3123C153.544 54.3123 154.302 54.5017 154.789 54.8804C154.897 54.9826 154.951 55.0337 154.951 55.0337L154.554 56.3233C154.158 55.9325 153.61 55.7371 152.913 55.7371C152.342 55.7371 152.056 55.9054 152.056 56.2421C152.056 56.3383 152.077 56.4195 152.119 56.4856C152.162 56.5457 152.231 56.5998 152.327 56.6479C152.429 56.69 152.528 56.7261 152.624 56.7561C152.721 56.7802 152.856 56.8162 153.03 56.8643C153.205 56.9064 153.355 56.9455 153.481 56.9816C154.185 57.216 154.696 57.5467 155.014 57.9735C155.333 58.4004 155.492 58.9324 155.492 59.5697C155.492 61.4214 154.329 62.3472 152.002 62.3472Z" fill="white"/>
<path d="M59.6897 18.9345C62.1757 15.7827 66.5952 12.8142 68.4942 11.7239V18.9345H72.6375V6.59469L73.8213 6H82.9218L83.9576 6.59469V18.9345H87.8789V11.7239C89.3833 12.2938 93.1616 14.5338 96.2395 18.9345C99.3174 23.3353 100.531 26.7647 100.753 27.9293L100.785 34.557H62.7089V38.1134H99.9362L103.934 40.9382C104.378 41.9045 104.6 42.5736 103.934 43.9859C103.49 44.8036 102.356 45.2249 101.715 45.2497L98.2371 43.3913H57.8401C57.3961 44.0851 56.0052 45.4281 53.9927 45.2497C51.9803 45.0713 51.8717 42.747 52.069 41.6072L55.9164 38.1134V27.9293C56.1383 26.2443 57.2038 22.0864 59.6897 18.9345Z" fill="white"/>
</svg>
